<svg width="684" height="232" viewBox="0 0 684 232" fill="none" xmlns="http://www.w3.org/2000/svg">
<mask id="path-1-outside-1_65_283" maskUnits="userSpaceOnUse" x="508.445" y="131.358" width="162" height="81" fill="black">
<rect fill="white" x="508.445" y="131.358" width="162" height="81"/>
<path d="M527.373 194.358V149.686H537.101V185.718H554.125V194.358H527.373ZM563.845 194.358L578.565 149.686H590.597L605.125 194.358H595.013L591.813 183.734H576.901L573.701 194.358H563.845ZM579.205 175.478H589.445L584.453 158.518H584.133L579.205 175.478ZM616.426 194.358V149.686H638.122C641.791 149.686 644.671 150.731 646.762 152.822C648.852 154.913 649.898 157.686 649.898 161.142C649.898 163.403 649.514 165.238 648.746 166.646C648.02 168.011 647.018 169.014 645.738 169.654C644.5 170.294 643.114 170.657 641.578 170.742V171.126C642.644 171.126 643.754 171.318 644.906 171.702C646.058 172.086 647.146 172.683 648.17 173.494C649.194 174.305 650.026 175.393 650.666 176.758C651.306 178.081 651.626 179.702 651.626 181.622C651.626 183.969 651.114 186.102 650.09 188.022C649.108 189.942 647.743 191.478 645.994 192.63C644.287 193.782 642.324 194.358 640.106 194.358H616.426ZM626.154 186.166H637.354C638.207 186.166 638.932 186.017 639.53 185.718C640.17 185.377 640.66 184.907 641.002 184.31C641.343 183.713 641.514 182.987 641.514 182.134V179.958C641.514 179.105 641.343 178.379 641.002 177.782C640.66 177.185 640.17 176.737 639.53 176.438C638.932 176.097 638.207 175.926 637.354 175.926H626.154V186.166ZM626.154 167.99H635.818C636.671 167.99 637.396 167.841 637.994 167.542C638.634 167.201 639.103 166.731 639.402 166.134C639.743 165.494 639.914 164.747 639.914 163.894V161.974C639.914 161.121 639.743 160.395 639.402 159.798C639.103 159.158 638.634 158.689 637.994 158.39C637.396 158.049 636.671 157.878 635.818 157.878H626.154V167.99Z"/>
</mask>
<path d="M527.373 194.358V149.686H537.101V185.718H554.125V194.358H527.373ZM563.845 194.358L578.565 149.686H590.597L605.125 194.358H595.013L591.813 183.734H576.901L573.701 194.358H563.845ZM579.205 175.478H589.445L584.453 158.518H584.133L579.205 175.478ZM616.426 194.358V149.686H638.122C641.791 149.686 644.671 150.731 646.762 152.822C648.852 154.913 649.898 157.686 649.898 161.142C649.898 163.403 649.514 165.238 648.746 166.646C648.02 168.011 647.018 169.014 645.738 169.654C644.5 170.294 643.114 170.657 641.578 170.742V171.126C642.644 171.126 643.754 171.318 644.906 171.702C646.058 172.086 647.146 172.683 648.17 173.494C649.194 174.305 650.026 175.393 650.666 176.758C651.306 178.081 651.626 179.702 651.626 181.622C651.626 183.969 651.114 186.102 650.09 188.022C649.108 189.942 647.743 191.478 645.994 192.63C644.287 193.782 642.324 194.358 640.106 194.358H616.426ZM626.154 186.166H637.354C638.207 186.166 638.932 186.017 639.53 185.718C640.17 185.377 640.66 184.907 641.002 184.31C641.343 183.713 641.514 182.987 641.514 182.134V179.958C641.514 179.105 641.343 178.379 641.002 177.782C640.66 177.185 640.17 176.737 639.53 176.438C638.932 176.097 638.207 175.926 637.354 175.926H626.154V186.166ZM626.154 167.99H635.818C636.671 167.99 637.396 167.841 637.994 167.542C638.634 167.201 639.103 166.731 639.402 166.134C639.743 165.494 639.914 164.747 639.914 163.894V161.974C639.914 161.121 639.743 160.395 639.402 159.798C639.103 159.158 638.634 158.689 637.994 158.39C637.396 158.049 636.671 157.878 635.818 157.878H626.154V167.99Z" fill="#123444"/>
<path d="M527.373 194.358H509.373V212.358H527.373V194.358ZM527.373 149.686V131.686H509.373V149.686H527.373ZM537.101 149.686H555.101V131.686H537.101V149.686ZM537.101 185.718H519.101V203.718H537.101V185.718ZM554.125 185.718H572.125V167.718H554.125V185.718ZM554.125 194.358V212.358H572.125V194.358H554.125ZM527.373 194.358H545.373V149.686H527.373H509.373V194.358H527.373ZM527.373 149.686V167.686H537.101V149.686V131.686H527.373V149.686ZM537.101 149.686H519.101V185.718H537.101H555.101V149.686H537.101ZM537.101 185.718V203.718H554.125V185.718V167.718H537.101V185.718ZM554.125 185.718H536.125V194.358H554.125H572.125V185.718H554.125ZM554.125 194.358V176.358H527.373V194.358V212.358H554.125V194.358ZM563.845 194.358L546.749 188.725L538.962 212.358H563.845V194.358ZM578.565 149.686V131.686H565.544L561.469 144.053L578.565 149.686ZM590.597 149.686L607.715 144.119L603.671 131.686H590.597V149.686ZM605.125 194.358V212.358H629.907L622.243 188.791L605.125 194.358ZM595.013 194.358L577.778 199.549L581.636 212.358H595.013V194.358ZM591.813 183.734L609.048 178.543L605.19 165.734H591.813V183.734ZM576.901 183.734V165.734H563.524L559.666 178.543L576.901 183.734ZM573.701 194.358V212.358H587.078L590.936 199.549L573.701 194.358ZM579.205 175.478L561.92 170.456L555.23 193.478H579.205V175.478ZM589.445 175.478V193.478H613.507L606.713 170.396L589.445 175.478ZM584.453 158.518L601.721 153.436L597.919 140.518H584.453V158.518ZM584.133 158.518V140.518H570.619L566.848 153.496L584.133 158.518ZM563.845 194.358L580.941 199.991L595.661 155.319L578.565 149.686L561.469 144.053L546.749 188.725L563.845 194.358ZM578.565 149.686V167.686H590.597V149.686V131.686H578.565V149.686ZM590.597 149.686L573.48 155.253L588.008 199.925L605.125 194.358L622.243 188.791L607.715 144.119L590.597 149.686ZM605.125 194.358V176.358H595.013V194.358V212.358H605.125V194.358ZM595.013 194.358L612.248 189.167L609.048 178.543L591.813 183.734L574.578 188.925L577.778 199.549L595.013 194.358ZM591.813 183.734V165.734H576.901V183.734V201.734H591.813V183.734ZM576.901 183.734L559.666 178.543L556.466 189.167L573.701 194.358L590.936 199.549L594.136 188.925L576.901 183.734ZM573.701 194.358V176.358H563.845V194.358V212.358H573.701V194.358ZM579.205 175.478V193.478H589.445V175.478V157.478H579.205V175.478ZM589.445 175.478L606.713 170.396L601.721 153.436L584.453 158.518L567.186 163.601L572.178 180.561L589.445 175.478ZM584.453 158.518V140.518H584.133V158.518V176.518H584.453V158.518ZM584.133 158.518L566.848 153.496L561.92 170.456L579.205 175.478L596.49 180.501L601.418 163.541L584.133 158.518ZM616.426 194.358H598.426V212.358H616.426V194.358ZM616.426 149.686V131.686H598.426V149.686H616.426ZM648.746 166.646L632.943 158.027L632.896 158.114L632.85 158.201L648.746 166.646ZM645.738 169.654L637.688 153.554L637.577 153.61L637.468 153.666L645.738 169.654ZM641.578 170.742L640.579 152.77L623.578 153.714V170.742H641.578ZM641.578 171.126H623.578V189.126H641.578V171.126ZM644.906 171.702L639.213 188.778L639.214 188.778L644.906 171.702ZM648.17 173.494L636.997 187.607L636.997 187.607L648.17 173.494ZM650.666 176.758L634.367 184.398L634.414 184.498L634.463 184.598L650.666 176.758ZM650.09 188.022L634.207 179.552L634.133 179.69L634.062 179.83L650.09 188.022ZM645.994 192.63L636.094 177.597L636.008 177.653L635.923 177.711L645.994 192.63ZM626.154 186.166H608.154V204.166H626.154V186.166ZM639.53 185.718L647.579 201.818L647.791 201.712L648 201.6L639.53 185.718ZM641.002 184.31L656.63 193.241V193.241L641.002 184.31ZM641.002 177.782L656.63 168.852V168.852L641.002 177.782ZM639.53 176.438L630.599 192.066L631.244 192.435L631.918 192.749L639.53 176.438ZM626.154 175.926V157.926H608.154V175.926H626.154ZM626.154 167.99H608.154V185.99H626.154V167.99ZM637.994 167.542L646.043 183.642L646.255 183.536L646.464 183.424L637.994 167.542ZM639.402 166.134L623.519 157.663L623.408 157.872L623.302 158.084L639.402 166.134ZM639.402 159.798L623.09 167.41L623.405 168.083L623.773 168.729L639.402 159.798ZM637.994 158.39L629.063 174.018L629.708 174.387L630.382 174.701L637.994 158.39ZM626.154 157.878V139.878H608.154V157.878H626.154ZM616.426 194.358H634.426V149.686H616.426H598.426V194.358H616.426ZM616.426 149.686V167.686H638.122V149.686V131.686H616.426V149.686ZM638.122 149.686V167.686C638.265 167.686 637.767 167.707 636.892 167.39C635.949 167.048 634.919 166.435 634.034 165.55L646.762 152.822L659.49 140.094C653.25 133.854 645.346 131.686 638.122 131.686V149.686ZM646.762 152.822L634.034 165.55C633.265 164.781 632.648 163.821 632.27 162.819C631.913 161.869 631.898 161.229 631.898 161.142H649.898H667.898C667.898 153.782 665.525 146.13 659.49 140.094L646.762 152.822ZM649.898 161.142H631.898C631.898 161.278 631.884 161.04 631.991 160.527C632.101 160.003 632.356 159.104 632.943 158.027L648.746 166.646L664.548 175.265C667.228 170.351 667.898 165.251 667.898 161.142H649.898ZM648.746 166.646L632.85 158.201C633.731 156.541 635.347 154.725 637.688 153.554L645.738 169.654L653.787 185.754C658.688 183.304 662.309 179.482 664.642 175.091L648.746 166.646ZM645.738 169.654L637.468 153.666C638.713 153.022 639.845 152.811 640.579 152.77L641.578 170.742L642.576 188.714C646.382 188.503 650.288 187.566 654.007 185.642L645.738 169.654ZM641.578 170.742H623.578V171.126H641.578H659.578V170.742H641.578ZM641.578 171.126V189.126C640.462 189.126 639.647 188.923 639.213 188.778L644.906 171.702L650.598 154.626C647.86 153.713 644.826 153.126 641.578 153.126V171.126ZM644.906 171.702L639.214 188.778C638.235 188.452 637.489 187.997 636.997 187.607L648.17 173.494L659.342 159.381C656.802 157.37 653.88 155.72 650.598 154.626L644.906 171.702ZM648.17 173.494L636.997 187.607C635.519 186.437 634.728 185.167 634.367 184.398L650.666 176.758L666.964 169.118C665.323 165.618 662.868 162.173 659.342 159.381L648.17 173.494ZM650.666 176.758L634.463 184.598C634.036 183.716 633.827 182.964 633.726 182.451C633.627 181.948 633.626 181.649 633.626 181.622H651.626H669.626C669.626 177.787 668.996 173.315 666.868 168.918L650.666 176.758ZM651.626 181.622H633.626C633.626 181.478 633.642 181.183 633.739 180.781C633.836 180.374 633.994 179.951 634.207 179.552L650.09 188.022L665.972 196.493C668.494 191.764 669.626 186.686 669.626 181.622H651.626ZM650.09 188.022L634.062 179.83C634.232 179.497 634.496 179.084 634.876 178.656C635.259 178.225 635.68 177.869 636.094 177.597L645.994 192.63L655.893 207.663C660.321 204.747 663.763 200.821 666.117 196.214L650.09 188.022ZM645.994 192.63L635.923 177.711C636.596 177.257 637.364 176.892 638.173 176.655C638.971 176.42 639.644 176.358 640.106 176.358V194.358V212.358C645.621 212.358 651.15 210.867 656.064 207.549L645.994 192.63ZM640.106 194.358V176.358H616.426V194.358V212.358H640.106V194.358ZM626.154 186.166V204.166H637.354V186.166V168.166H626.154V186.166ZM637.354 186.166V204.166C640.249 204.166 643.887 203.664 647.579 201.818L639.53 185.718L631.48 169.618C633.978 168.369 636.165 168.166 637.354 168.166V186.166ZM639.53 185.718L648 201.6C651.463 199.753 654.512 196.947 656.63 193.241L641.002 184.31L625.373 175.38C626.808 172.868 628.876 171 631.059 169.836L639.53 185.718ZM641.002 184.31L656.63 193.241C658.857 189.342 659.514 185.375 659.514 182.134H641.514H623.514C623.514 180.6 623.828 178.083 625.373 175.38L641.002 184.31ZM641.514 182.134H659.514V179.958H641.514H623.514V182.134H641.514ZM641.514 179.958H659.514C659.514 176.717 658.857 172.75 656.63 168.852L641.002 177.782L625.373 186.713C623.828 184.009 623.514 181.492 623.514 179.958H641.514ZM641.002 177.782L656.63 168.852C654.392 164.934 651.056 161.954 647.142 160.127L639.53 176.438L631.918 192.749C629.283 191.52 626.929 189.435 625.373 186.713L641.002 177.782ZM639.53 176.438L648.46 160.81C644.562 158.582 640.594 157.926 637.354 157.926V175.926V193.926C635.82 193.926 633.303 193.611 630.599 192.066L639.53 176.438ZM637.354 175.926V157.926H626.154V175.926V193.926H637.354V175.926ZM626.154 175.926H608.154V186.166H626.154H644.154V175.926H626.154ZM626.154 167.99V185.99H635.818V167.99V149.99H626.154V167.99ZM635.818 167.99V185.99C638.713 185.99 642.351 185.488 646.043 183.642L637.994 167.542L629.944 151.442C632.442 150.193 634.629 149.99 635.818 149.99V167.99ZM637.994 167.542L646.464 183.424C650.099 181.486 653.388 178.41 655.501 174.184L639.402 166.134L623.302 158.084C624.818 155.053 627.168 152.916 629.523 151.66L637.994 167.542ZM639.402 166.134L655.284 174.605C657.242 170.933 657.914 167.18 657.914 163.894H639.914H621.914C621.914 162.315 622.244 160.055 623.519 157.663L639.402 166.134ZM639.914 163.894H657.914V161.974H639.914H621.914V163.894H639.914ZM639.914 161.974H657.914C657.914 158.733 657.257 154.766 655.03 150.868L639.402 159.798L623.773 168.729C622.228 166.025 621.914 163.508 621.914 161.974H639.914ZM639.402 159.798L655.713 152.186C653.626 147.715 650.077 144.166 645.606 142.079L637.994 158.39L630.382 174.701C627.19 173.212 624.58 170.602 623.09 167.41L639.402 159.798ZM637.994 158.39L646.924 142.762C643.026 140.534 639.058 139.878 635.818 139.878V157.878V175.878C634.284 175.878 631.767 175.563 629.063 174.018L637.994 158.39ZM635.818 157.878V139.878H626.154V157.878V175.878H635.818V157.878ZM626.154 157.878H608.154V167.99H626.154H644.154V157.878H626.154Z" fill="white" mask="url(#path-1-outside-1_65_283)"/>
<mask id="path-3-outside-2_65_283" maskUnits="userSpaceOnUse" x="-0.00149536" y="-0.999573" width="525" height="228" fill="black">
<rect fill="white" x="-0.00149536" y="-0.999573" width="525" height="228"/>
<path d="M18.4549 33.3574C18.8937 24.4482 26.4718 17.5815 35.381 18.0203C44.2902 18.4591 51.1568 26.0372 50.718 34.9464C45.9998 130.742 82.4156 158.07 89.7336 162.734C92.0251 164.195 94.3963 165.607 97.0018 167.141C106.12 172.511 123.234 176.957 142.094 176.55C160.876 176.146 178.225 171.009 189.526 160.77C196.136 154.781 206.354 155.284 212.344 161.894C218.331 168.504 217.829 178.716 211.22 184.705C192.082 202.047 166.001 208.344 142.79 208.844C119.658 209.342 96.2097 204.161 80.6099 194.974C77.9958 193.434 75.1895 191.771 72.3728 189.976C54.2477 178.424 13.2282 139.478 18.4549 33.3574ZM346.519 33.5287C348.79 24.9045 357.622 19.7516 366.247 22.021C374.873 24.2911 380.025 33.1294 377.755 41.7557L339.446 187.337C337.176 195.963 328.338 201.114 319.712 198.844C311.087 196.573 305.934 187.741 308.204 179.116L311.623 166.119C311.65 165.879 311.661 165.635 311.699 165.394L315.888 138.618C316.639 133.595 314.946 125.013 309.264 117.622C304.032 110.817 295.765 105.477 283.41 105.477C270.109 105.477 258.073 111.915 253.858 128.776C252.639 133.651 252.13 139.402 252.924 144.41C253.704 149.324 255.49 152.32 257.77 154.088C260.808 156.443 263.039 157.086 264.344 157.242C265.623 157.396 266.763 157.175 267.896 156.605C270.494 155.296 273.202 151.947 273.996 147.722C275.642 138.956 284.082 133.182 292.848 134.826C301.614 136.472 307.388 144.912 305.743 153.678C303.307 166.653 295.006 179.124 282.413 185.463C268.739 192.343 252.42 190.804 237.985 179.614C227.344 171.366 222.668 159.823 221.026 149.476C219.398 139.222 220.503 128.986 222.515 120.94C230.932 87.2705 257.947 73.1746 283.41 73.1746C303.895 73.1746 319.885 81.5041 330.816 93.1806L346.519 33.5287ZM99.6716 46.5316C117.092 34.6717 135.03 34.9372 149.015 40.6011C155.763 43.3344 161.549 47.2806 166.043 51.5914C168.759 54.1967 171.362 57.2993 173.412 60.7458C173.64 60.9943 173.873 61.2455 174.093 61.5156C177.573 65.7867 177.739 70.3375 177.765 71.5406C177.83 74.5477 177.038 76.9555 176.85 77.5405C176.508 78.6057 176.105 79.5802 175.746 80.3795C174.35 83.4857 172.065 87.3325 169.153 91.2626C163.367 99.0713 153.422 109.481 139.368 115.376C131.142 118.826 121.677 114.952 118.226 106.726C114.778 98.5011 118.645 89.0348 126.87 85.5845C133.036 82.9984 138.288 78.1851 142.037 73.5153C140.574 72.3873 138.833 71.3251 136.889 70.5375C131.907 68.52 125.483 68.0331 117.848 73.2314C109.472 78.9342 106.1 86.1156 105.444 93.3635C104.744 101.113 107.159 109.572 111.716 116.341C115.232 121.565 125.191 128.554 136.996 128.757C147.103 128.93 161.827 124.052 175.683 99.6221C180.083 91.8632 189.942 89.1397 197.701 93.5402C205.46 97.9408 208.184 107.8 203.783 115.559C185.388 147.993 160.786 161.477 136.441 161.059C113.791 160.67 94.1646 148.11 84.9211 134.379C76.7177 122.192 71.8293 106.439 73.2746 90.4551C74.7657 73.9696 82.9923 57.8879 99.6716 46.5316Z"/>
<path fill-rule="evenodd" clip-rule="evenodd" d="M435.229 66.7171C480.152 62.5103 506.294 86.0985 506.294 131.322C506.293 169.407 473.315 202.386 435.229 202.386C397.144 202.386 370.625 170.081 369.798 133.422C368.789 88.6555 397.31 70.2686 435.229 66.7171ZM452.718 83.1395C447.143 81.8897 441.541 85.091 440.201 90.294L432.63 119.669L413.003 99.5872C409.138 95.6367 402.569 95.3571 398.334 98.9626C394.1 102.569 393.804 108.7 397.665 112.653L417.514 132.962L392.732 143.87C387.546 146.152 385.329 151.925 387.773 156.766C390.218 161.607 396.403 163.684 401.59 161.403L426.226 150.558L423.652 168.81C422.903 174.115 426.901 178.986 432.586 179.687C438.27 180.386 443.488 176.651 444.238 171.346L446.251 157.113L466.352 171.876C470.858 175.186 477.386 174.46 480.932 170.255C484.475 166.049 483.702 159.955 479.197 156.646L455.891 139.53L476.232 133.934C481.731 132.42 484.881 127.035 483.26 121.902C481.638 116.77 475.863 113.835 470.364 115.347L453.929 119.864L460.39 94.8175C461.727 89.6156 458.291 84.3909 452.718 83.1395Z"/>
</mask>
<path d="M18.4549 33.3574C18.8937 24.4482 26.4718 17.5815 35.381 18.0203C44.2902 18.4591 51.1568 26.0372 50.718 34.9464C45.9998 130.742 82.4156 158.07 89.7336 162.734C92.0251 164.195 94.3963 165.607 97.0018 167.141C106.12 172.511 123.234 176.957 142.094 176.55C160.876 176.146 178.225 171.009 189.526 160.77C196.136 154.781 206.354 155.284 212.344 161.894C218.331 168.504 217.829 178.716 211.22 184.705C192.082 202.047 166.001 208.344 142.79 208.844C119.658 209.342 96.2097 204.161 80.6099 194.974C77.9958 193.434 75.1895 191.771 72.3728 189.976C54.2477 178.424 13.2282 139.478 18.4549 33.3574ZM346.519 33.5287C348.79 24.9045 357.622 19.7516 366.247 22.021C374.873 24.2911 380.025 33.1294 377.755 41.7557L339.446 187.337C337.176 195.963 328.338 201.114 319.712 198.844C311.087 196.573 305.934 187.741 308.204 179.116L311.623 166.119C311.65 165.879 311.661 165.635 311.699 165.394L315.888 138.618C316.639 133.595 314.946 125.013 309.264 117.622C304.032 110.817 295.765 105.477 283.41 105.477C270.109 105.477 258.073 111.915 253.858 128.776C252.639 133.651 252.13 139.402 252.924 144.41C253.704 149.324 255.49 152.32 257.77 154.088C260.808 156.443 263.039 157.086 264.344 157.242C265.623 157.396 266.763 157.175 267.896 156.605C270.494 155.296 273.202 151.947 273.996 147.722C275.642 138.956 284.082 133.182 292.848 134.826C301.614 136.472 307.388 144.912 305.743 153.678C303.307 166.653 295.006 179.124 282.413 185.463C268.739 192.343 252.42 190.804 237.985 179.614C227.344 171.366 222.668 159.823 221.026 149.476C219.398 139.222 220.503 128.986 222.515 120.94C230.932 87.2705 257.947 73.1746 283.41 73.1746C303.895 73.1746 319.885 81.5041 330.816 93.1806L346.519 33.5287ZM99.6716 46.5316C117.092 34.6717 135.03 34.9372 149.015 40.6011C155.763 43.3344 161.549 47.2806 166.043 51.5914C168.759 54.1967 171.362 57.2993 173.412 60.7458C173.64 60.9943 173.873 61.2455 174.093 61.5156C177.573 65.7867 177.739 70.3375 177.765 71.5406C177.83 74.5477 177.038 76.9555 176.85 77.5405C176.508 78.6057 176.105 79.5802 175.746 80.3795C174.35 83.4857 172.065 87.3325 169.153 91.2626C163.367 99.0713 153.422 109.481 139.368 115.376C131.142 118.826 121.677 114.952 118.226 106.726C114.778 98.5011 118.645 89.0348 126.87 85.5845C133.036 82.9984 138.288 78.1851 142.037 73.5153C140.574 72.3873 138.833 71.3251 136.889 70.5375C131.907 68.52 125.483 68.0331 117.848 73.2314C109.472 78.9342 106.1 86.1156 105.444 93.3635C104.744 101.113 107.159 109.572 111.716 116.341C115.232 121.565 125.191 128.554 136.996 128.757C147.103 128.93 161.827 124.052 175.683 99.6221C180.083 91.8632 189.942 89.1397 197.701 93.5402C205.46 97.9408 208.184 107.8 203.783 115.559C185.388 147.993 160.786 161.477 136.441 161.059C113.791 160.67 94.1646 148.11 84.9211 134.379C76.7177 122.192 71.8293 106.439 73.2746 90.4551C74.7657 73.9696 82.9923 57.8879 99.6716 46.5316Z" fill="#FFA41B"/>
<path fill-rule="evenodd" clip-rule="evenodd" d="M435.229 66.7171C480.152 62.5103 506.294 86.0985 506.294 131.322C506.293 169.407 473.315 202.386 435.229 202.386C397.144 202.386 370.625 170.081 369.798 133.422C368.789 88.6555 397.31 70.2686 435.229 66.7171ZM452.718 83.1395C447.143 81.8897 441.541 85.091 440.201 90.294L432.63 119.669L413.003 99.5872C409.138 95.6367 402.569 95.3571 398.334 98.9626C394.1 102.569 393.804 108.7 397.665 112.653L417.514 132.962L392.732 143.87C387.546 146.152 385.329 151.925 387.773 156.766C390.218 161.607 396.403 163.684 401.59 161.403L426.226 150.558L423.652 168.81C422.903 174.115 426.901 178.986 432.586 179.687C438.27 180.386 443.488 176.651 444.238 171.346L446.251 157.113L466.352 171.876C470.858 175.186 477.386 174.46 480.932 170.255C484.475 166.049 483.702 159.955 479.197 156.646L455.891 139.53L476.232 133.934C481.731 132.42 484.881 127.035 483.26 121.902C481.638 116.77 475.863 113.835 470.364 115.347L453.929 119.864L460.39 94.8175C461.727 89.6156 458.291 84.3909 452.718 83.1395Z" fill="#FFA41B"/>
<path d="M18.4549 33.3574C18.8937 24.4482 26.4718 17.5815 35.381 18.0203C44.2902 18.4591 51.1568 26.0372 50.718 34.9464C45.9998 130.742 82.4156 158.07 89.7336 162.734C92.0251 164.195 94.3963 165.607 97.0018 167.141C106.12 172.511 123.234 176.957 142.094 176.55C160.876 176.146 178.225 171.009 189.526 160.77C196.136 154.781 206.354 155.284 212.344 161.894C218.331 168.504 217.829 178.716 211.22 184.705C192.082 202.047 166.001 208.344 142.79 208.844C119.658 209.342 96.2097 204.161 80.6099 194.974C77.9958 193.434 75.1895 191.771 72.3728 189.976C54.2477 178.424 13.2282 139.478 18.4549 33.3574ZM346.519 33.5287C348.79 24.9045 357.622 19.7516 366.247 22.021C374.873 24.2911 380.025 33.1294 377.755 41.7557L339.446 187.337C337.176 195.963 328.338 201.114 319.712 198.844C311.087 196.573 305.934 187.741 308.204 179.116L311.623 166.119C311.65 165.879 311.661 165.635 311.699 165.394L315.888 138.618C316.639 133.595 314.946 125.013 309.264 117.622C304.032 110.817 295.765 105.477 283.41 105.477C270.109 105.477 258.073 111.915 253.858 128.776C252.639 133.651 252.13 139.402 252.924 144.41C253.704 149.324 255.49 152.32 257.77 154.088C260.808 156.443 263.039 157.086 264.344 157.242C265.623 157.396 266.763 157.175 267.896 156.605C270.494 155.296 273.202 151.947 273.996 147.722C275.642 138.956 284.082 133.182 292.848 134.826C301.614 136.472 307.388 144.912 305.743 153.678C303.307 166.653 295.006 179.124 282.413 185.463C268.739 192.343 252.42 190.804 237.985 179.614C227.344 171.366 222.668 159.823 221.026 149.476C219.398 139.222 220.503 128.986 222.515 120.94C230.932 87.2705 257.947 73.1746 283.41 73.1746C303.895 73.1746 319.885 81.5041 330.816 93.1806L346.519 33.5287ZM99.6716 46.5316C117.092 34.6717 135.03 34.9372 149.015 40.6011C155.763 43.3344 161.549 47.2806 166.043 51.5914C168.759 54.1967 171.362 57.2993 173.412 60.7458C173.64 60.9943 173.873 61.2455 174.093 61.5156C177.573 65.7867 177.739 70.3375 177.765 71.5406C177.83 74.5477 177.038 76.9555 176.85 77.5405C176.508 78.6057 176.105 79.5802 175.746 80.3795C174.35 83.4857 172.065 87.3325 169.153 91.2626C163.367 99.0713 153.422 109.481 139.368 115.376C131.142 118.826 121.677 114.952 118.226 106.726C114.778 98.5011 118.645 89.0348 126.87 85.5845C133.036 82.9984 138.288 78.1851 142.037 73.5153C140.574 72.3873 138.833 71.3251 136.889 70.5375C131.907 68.52 125.483 68.0331 117.848 73.2314C109.472 78.9342 106.1 86.1156 105.444 93.3635C104.744 101.113 107.159 109.572 111.716 116.341C115.232 121.565 125.191 128.554 136.996 128.757C147.103 128.93 161.827 124.052 175.683 99.6221C180.083 91.8632 189.942 89.1397 197.701 93.5402C205.46 97.9408 208.184 107.8 203.783 115.559C185.388 147.993 160.786 161.477 136.441 161.059C113.791 160.67 94.1646 148.11 84.9211 134.379C76.7177 122.192 71.8293 106.439 73.2746 90.4551C74.7657 73.9696 82.9923 57.8879 99.6716 46.5316Z" stroke="white" stroke-width="36" mask="url(#path-3-outside-2_65_283)"/>
<path fill-rule="evenodd" clip-rule="evenodd" d="M435.229 66.7171C480.152 62.5103 506.294 86.0985 506.294 131.322C506.293 169.407 473.315 202.386 435.229 202.386C397.144 202.386 370.625 170.081 369.798 133.422C368.789 88.6555 397.31 70.2686 435.229 66.7171ZM452.718 83.1395C447.143 81.8897 441.541 85.091 440.201 90.294L432.63 119.669L413.003 99.5872C409.138 95.6367 402.569 95.3571 398.334 98.9626C394.1 102.569 393.804 108.7 397.665 112.653L417.514 132.962L392.732 143.87C387.546 146.152 385.329 151.925 387.773 156.766C390.218 161.607 396.403 163.684 401.59 161.403L426.226 150.558L423.652 168.81C422.903 174.115 426.901 178.986 432.586 179.687C438.27 180.386 443.488 176.651 444.238 171.346L446.251 157.113L466.352 171.876C470.858 175.186 477.386 174.46 480.932 170.255C484.475 166.049 483.702 159.955 479.197 156.646L455.891 139.53L476.232 133.934C481.731 132.42 484.881 127.035 483.26 121.902C481.638 116.77 475.863 113.835 470.364 115.347L453.929 119.864L460.39 94.8175C461.727 89.6156 458.291 84.3909 452.718 83.1395Z" stroke="white" stroke-width="36" mask="url(#path-3-outside-2_65_283)"/>
</svg>
